<!DOCTYPE svg PUBLIC "-//W3C//DTD SVG 1.1//EN" "http://www.w3.org/Graphics/SVG/1.1/DTD/svg11.dtd">
<!-- Uploaded to: SVG Repo, www.svgrepo.com, Transformed by: SVG Repo Mixer Tools -->
<svg fill="#000000" height="800px" width="800px" version="1.1" id="Layer_1" xmlns="http://www.w3.org/2000/svg" xmlns:xlink="http://www.w3.org/1999/xlink" viewBox="0 0 485 485" xml:space="preserve">
<g id="SVGRepo_bgCarrier" stroke-width="0"/>
<g id="SVGRepo_tracerCarrier" stroke-linecap="round" stroke-linejoin="round"/>
<g id="SVGRepo_iconCarrier"> <g> <path d="M450.463,211.887h-94.811l23.411-115.613H257.5V0h-30v96.274H105.938l23.411,115.613H34.537L64.022,357.5h121.925V485h30 V357.5h53.105V485h30V357.5h121.925L450.463,211.887z M257.5,241.887h63.215l-8.668,85.613H257.5V241.887z M227.5,327.5h-54.547 l-8.668-85.613H227.5V327.5z M142.621,126.274h199.758l-17.335,85.613H159.956L142.621,126.274z M71.221,241.887h62.911 l8.668,85.613H88.557L71.221,241.887z M396.443,327.5h-54.242l8.668-85.613h62.911L396.443,327.5z"/> </g> </g>
</svg>