<?xml version="1.0" standalone="no"?>
<!DOCTYPE svg PUBLIC "-//W3C//DTD SVG 20010904//EN"
 "http://www.w3.org/TR/2001/REC-SVG-20010904/DTD/svg10.dtd">
<svg version="1.0" xmlns="http://www.w3.org/2000/svg"
 width="30.000000pt" height="29.000000pt" viewBox="0 0 30.000000 29.000000"
 preserveAspectRatio="xMidYMid meet">

<g transform="translate(0.000000,29.000000) scale(0.100000,-0.100000)"
fill="#000000" stroke="none">
<path d="M147 273 c-4 -3 -7 -21 -7 -38 0 -33 -22 -61 -38 -51 -6 3 -12 -3
-15 -14 -3 -13 -10 -18 -21 -14 -10 4 -16 1 -16 -7 0 -7 -10 -23 -22 -36 -26
-28 -14 -29 43 -3 24 11 50 20 57 20 18 0 16 -75 -3 -90 -25 -20 -17 -27 30
-27 45 0 45 0 27 21 -14 15 -18 31 -15 59 3 20 9 37 14 37 5 0 29 -10 54 -22
47 -23 74 -18 37 8 -12 8 -22 21 -22 29 0 8 -6 12 -14 9 -8 -3 -17 3 -20 14
-4 11 -14 19 -24 18 -12 -1 -18 10 -22 41 -7 45 -13 57 -23 46z"/>
</g>
</svg>
